# xmcd CD database file
#
# Track frame offsets:
#	150
#	14615
#	32355
#	45698
#	64645
#	81673
#	100635
#	117430
#	127973
#	151110
#	164215
#	183010
#	198070
#
# Disc length: 2837 seconds
#
# Revision: 2
# Processed by: cddbd v1.5.1PL0 Copyright (c) Steve Scherf et al.
# Submitted via: CDex 1.51
#
DISCID=a00b130d
DTITLE=Velvet Crush - In The Presence Of Greatness
DYEAR=1991
DGENRE=Rock
TTITLE0=Window To The World
TTITLE1=Drive Me Down
TTITLE2=Ash And Earth
TTITLE3=White Soul
TTITLE4=Superstar
TTITLE5=Blind Faith
TTITLE6=Speedway Baby
TTITLE7=Stop
TTITLE8=Asshole
TTITLE9=Die A Little Every Day
TTITLE10=Atmosphere
TTITLE11=The Gentle Breeze
TTITLE12=Butterfly Position
EXTD=YEAR: 1991
EXTT0=
EXTT1=
EXTT2=
EXTT3=
EXTT4=
EXTT5=
EXTT6=
EXTT7=
EXTT8=
EXTT9=
EXTT10=
EXTT11=
EXTT12=
PLAYORDER=
